<?xml version="1.0" ?><svg viewBox="0 0 64 64" xmlns="http://www.w3.org/2000/svg"><title/><path d="M55.395,27.419a3.976,3.976,0,0,0-3.9-3.133H44.218l4.631-4.5A4,4,0,0,0,48.8,14,23.537,23.537,0,0,0,32.631,7.593h-.222A24.056,24.056,0,0,0,8.552,26.754,24.449,24.449,0,0,0,32.408,56.408C46.3,56.408,56,46.564,56,32.47A21.894,21.894,0,0,0,55.395,27.419ZM52,32.47v.016c-.007,11.59-7.752,19.839-19.431,19.915A20.424,20.424,0,0,1,12.112,29.869a21.412,21.412,0,0,1,.354-2.291,20.014,20.014,0,0,1,17.653-15.85,20.355,20.355,0,0,1,11.43,2.009,18.168,18.168,0,0,1,4.513,3.181l-5.8,5.633a11.218,11.218,0,0,0-7.857-3.02A12.491,12.491,0,0,0,30.83,44.395a13.388,13.388,0,0,0,5.9-.549,10.2,10.2,0,0,0,5.9-5.031l.649-1.26a9.289,9.289,0,0,0,.453-1.657H32.388V28.286h19.1A19.266,19.266,0,0,1,52,32.47ZM32.388,39.9h3.519a9.2,9.2,0,0,1-3.5.611,8.491,8.491,0,0,1,0-16.979,7.655,7.655,0,0,1,3.418.756H32.388a4,4,0,0,0-4,4V35.9A4,4,0,0,0,32.388,39.9Z"/></svg>