<svg width="50" height="50" xmlns="http://www.w3.org/2000/svg">

 <g>
  <title>background</title>
  <rect fill="none" id="canvas_background" height="402" width="582" y="-1" x="-1"/>
 </g>
 <g>
  <title>Layer 1</title>
  <path id="svg_1" fill="#ffffff" d="m23.853001,4.181c-1.685001,0.914 -2.865,2.136 -3.512001,3.635c-0.605,1.409 -0.900999,3.403 -0.900999,6.108l0,0.92l-4.358001,0l0,8.799l4.358001,0l0,23.489l10.472,0l0,-23.488001l5.865,0l0,-8.798999l-5.865,0l0,-0.781c0,-1.695 0.348,-2.121 0.390999,-2.167c0.225,-0.242001 0.753,-0.375 1.482,-0.375c1.041,0 2.151001,0.136 3.298,0.410999l1.328999,0.317l1.546001,-7.968l-1.119999,-0.353c-4.539001,-1.426 -9.778002,-1.488 -12.985001,0.252zm10.493999,4.931c-2.476999,-0.403001 -4.812,-0.247001 -5.971001,1.000999c-0.736,0.788 -1.092999,2.079 -1.092999,3.949l0,3.407l5.868,0l0,3.549999l-5.868,0l0,23.492002l-5.223001,0l0,-23.491001l-4.355999,0l0,-3.550001l4.355999,0l0,-3.546c0,-2.304999 0.231001,-4.011 0.688,-5.066999c0.415001,-0.961 1.184,-1.733 2.354,-2.37c2.297001,-1.247 6.286001,-1.267 9.828001,-0.374l-0.583,2.999001z"/>
 </g>
</svg>