<?xml version="1.0" encoding="UTF-8" standalone="no"?>
<svg
   xmlns:dc="http://purl.org/dc/elements/1.1/"
   xmlns:cc="http://creativecommons.org/ns#"
   xmlns:rdf="http://www.w3.org/1999/02/22-rdf-syntax-ns#"
   xmlns:svg="http://www.w3.org/2000/svg"
   xmlns="http://www.w3.org/2000/svg"
   xmlns:sodipodi="http://sodipodi.sourceforge.net/DTD/sodipodi-0.dtd"
   xmlns:inkscape="http://www.inkscape.org/namespaces/inkscape"
   style="enable-background:new 0 0 512 512;"
   version="1.1"
   viewBox="0 0 512 512"
   xml:space="preserve"
   id="svg855"
   sodipodi:docname="iconfinder_home_981080.svg"
   inkscape:version="0.92.4 (5da689c313, 2019-01-14)"><metadata
     id="metadata861"><rdf:RDF><cc:Work
         rdf:about=""><dc:format>image/svg+xml</dc:format><dc:type
           rdf:resource="http://purl.org/dc/dcmitype/StillImage" /><dc:title></dc:title></cc:Work></rdf:RDF></metadata><defs
     id="defs859" /><sodipodi:namedview
     pagecolor="#ffffff"
     bordercolor="#666666"
     borderopacity="1"
     objecttolerance="10"
     gridtolerance="10"
     guidetolerance="10"
     inkscape:pageopacity="0"
     inkscape:pageshadow="2"
     inkscape:window-width="716"
     inkscape:window-height="480"
     id="namedview857"
     showgrid="false"
     inkscape:zoom="0.4609375"
     inkscape:cx="256"
     inkscape:cy="256"
     inkscape:window-x="0"
     inkscape:window-y="0"
     inkscape:window-maximized="0"
     inkscape:current-layer="g851" /><g
     id="home"><g
       id="g851"><circle
         cx="256"
         cy="256"
         r="253.44"
         id="circle839"
         style="fill:#e91e63;fill-opacity:1" /><path
         d="M184.69,283.819c0.05,0.049,0.089,0.099,0.139,0.148c-0.05,0.029-0.089,0.049-0.139,0.079    c-0.049-0.05-0.089-0.099-0.139-0.149C184.601,283.879,184.641,283.849,184.69,283.819z"
         style="fill:#FFFFFF;"
         id="path841" /><path
         d="M327.478,283.859c-0.049,0.059-0.109,0.129-0.168,0.188c-0.059-0.04-0.119-0.07-0.178-0.099    c0.059-0.059,0.119-0.129,0.178-0.188C327.369,283.789,327.419,283.829,327.478,283.859z"
         style="fill:#FFFFFF;"
         id="path843" /><path
         inkscape:connector-curvature="0"
         d="M 337.64506,371.10601 H 172.83705 c -6.637,0 -12.017,-5.38001 -12.017,-12.01701 V 238.39299 H 349.66104 V 359.089 c 10e-4,6.637 -5.38,12.01701 -12.01598,12.01701 z"
         style="fill:#ffffff;stroke-width:0.99999994"
         id="path845" /><path
         inkscape:connector-curvature="0"
         d="m 373.66305,255.57401 c 5.01301,5.01298 1.429,13.582 -5.66,13.534 l -111.874,-0.757 -112.241,-0.75901 c -7.037,-0.048 -10.528,-8.55802 -5.552,-13.53399 L 249.63505,142.758 c 3.096,-3.09601 8.116,-3.09601 11.212,0 z"
         style="fill:#ffffff;stroke-width:0.99999994"
         id="path847" /><path
         inkscape:connector-curvature="0"
         d="m 274.00605,285.228 h -37.53 c -9.323,0 -16.88,7.55701 -16.88,16.88001 v 69.456 h 71.289 v -69.456 c 0.001,-9.323 -7.557,-16.88001 -16.879,-16.88001 z"
         id="path849"
         style="stroke-width:0.99999994;fill:#e91e63;fill-opacity:1" /></g></g><g
     id="Layer_1" /></svg>