<svg width="96" height="96" xmlns="http://www.w3.org/2000/svg">
 <title/>

 <g>
  <title>background</title>
  <rect fill="none" id="canvas_background" height="402" width="582" y="-1" x="-1"/>
 </g>
 <g>
  <title>Layer 1</title>
  <path fill="#ffffff" id="svg_1" d="m48,0.214668a48,48 0 0 0 0,96.000001a6,6 0 0 0 0,-12a36,36 0 1 1 36,-36l0,18a6,6 0 0 1 -12,0l0,-18a24,24 0 1 0 -24,24a23.7365,23.7365 0 0 0 12.254902,-3.478302a17.958599,17.958599 0 0 0 35.745098,-2.521698l0,-18a48.047401,48.047401 0 0 0 -48,-48.000001zm0,60.000001a12,12 0 1 1 12,-12a12.0081,12.0081 0 0 1 -12,12z"/>
 </g>
</svg>