<?xml version="1.0" ?><!DOCTYPE svg  PUBLIC '-//W3C//DTD SVG 1.1//EN'  'http://www.w3.org/Graphics/SVG/1.1/DTD/svg11.dtd'><svg enable-background="new 0 0 24 24" height="24px" id="Layer_1" version="1.1" viewBox="0 0 24 24" width="24px" xml:space="preserve" xmlns="http://www.w3.org/2000/svg" xmlns:xlink="http://www.w3.org/1999/xlink"><path d="M23,2l-7,2L8,0L1,2C0.4,2,0,2.4,0,3v18c0,0.6,0.4,1,1,1l7-2l8,4l7-2c0.6,0,1-0.4,1-1V3C24,2.4,23.6,2,23,2z M15,5.5v16l-6-3  v-16L15,5.5z M2,20V4l6-2v16L2,20z M22,20l-6,2V6l6-2V20z"/></svg>