<svg width="48" height="48" xmlns="http://www.w3.org/2000/svg">

 <g>
  <title>background</title>
  <rect fill="none" id="canvas_background" height="402" width="582" y="-1" x="-1"/>
 </g>
 <g>
  <title>Layer 1</title>
  <path fill="#ffffff" id="svg_1" fill-rule="evenodd" d="m33,47.101696l-18,0c-2.209,0 -4,-1.791 -4,-4l0,-37.999999c0,-2.209 1.791,-4 4,-4l18,0c2.209,0 4,1.791 4,4l0,37.999999c0,2.209 -1.791,4 -4,4zm2,-41.999999c0,-1.104 -0.896,-2 -2,-2l-18,0c-1.104,0 -2,0.896 -2,2l0,4l22,0l0,-4zm0,6l-22,0l0,25.999999l22,0l0,-25.999999zm0,27.999999l-22,0l0,4c0,1.104 0.896,2 2,2l18,0c1.104,0 2,-0.896 2,-2l0,-4zm-11,5c-1.104,0 -2,-0.896 -2,-2s0.896,-2 2,-2s2,0.896 2,2s-0.896,2 -2,2zm-7,-29.999999l2,0c0.552999,0 1,0.448 1,1l0,2.000001c0,0.552 -0.447001,1 -1,1l-2,0c-0.552999,0 -1,-0.448 -1,-1l0,-2.000001c0,-0.552 0.447001,-1 1,-1zm0,7.000001l2,0c0.552999,0 1,0.448 1,1l0,2c0,0.552999 -0.447001,1 -1,1l-2,0c-0.552999,0 -1,-0.447001 -1,-1l0,-2c0,-0.552 0.447001,-1 1,-1zm0,7l2,0c0.552999,0 1,0.447001 1,1l0,2c0,0.552999 -0.447001,0.999998 -1,0.999998l-2,0c-0.552999,0 -1,-0.446999 -1,-0.999998l0,-2c0,-0.552999 0.447001,-1 1,-1zm6,-14.000001l2,0c0.552999,0 1,0.448 1,1l0,2.000001c0,0.552 -0.447001,1 -1,1l-2,0c-0.552999,0 -1,-0.448 -1,-1l0,-2.000001c0,-0.552 0.447001,-1 1,-1zm0,7.000001l2,0c0.552999,0 1,0.448 1,1l0,2c0,0.552999 -0.447001,1 -1,1l-2,0c-0.552999,0 -1,-0.447001 -1,-1l0,-2c0,-0.552 0.447001,-1 1,-1zm0,7l2,0c0.552999,0 1,0.447001 1,1l0,2c0,0.552999 -0.447001,0.999998 -1,0.999998l-2,0c-0.552999,0 -1,-0.446999 -1,-0.999998l0,-2c0,-0.552999 0.447001,-1 1,-1zm6,-14.000001l2,0c0.552999,0 1,0.448 1,1l0,2.000001c0,0.552 -0.447001,1 -1,1l-2,0c-0.552999,0 -1,-0.448 -1,-1l0,-2.000001c0,-0.552 0.447001,-1 1,-1zm0,7.000001l2,0c0.552999,0 1,0.448 1,1l0,2c0,0.552999 -0.447001,1 -1,1l-2,0c-0.552999,0 -1,-0.447001 -1,-1l0,-2c0,-0.552 0.447001,-1 1,-1zm-8,-16.000001l6,0c0.552999,0 1,0.448 1,1s-0.447001,1 -1,1l-6,0c-0.552999,0 -1,-0.448 -1,-1s0.447001,-1 1,-1z" clip-rule="evenodd"/>
 </g>
</svg>