<?xml version="1.0" ?><svg data-name="Layer 1" id="Layer_1" viewBox="0 0 64 64" xmlns="http://www.w3.org/2000/svg" xmlns:xlink="http://www.w3.org/1999/xlink"><defs><style>.cls-1{fill:url(#linear-gradient);}.cls-2{fill:#fff;}</style><linearGradient gradientUnits="userSpaceOnUse" id="linear-gradient" x1="7.5" x2="58.17" y1="8.15" y2="57.48"><stop offset="0" stop-color="#2b3990"/><stop offset="1" stop-color="#262262"/></linearGradient></defs><title/><rect class="cls-1" height="58" rx="16.02" ry="16.02" width="58" x="3" y="3"/><path class="cls-2" d="M35.29,12.09H28.71A16.65,16.65,0,0,0,12.08,28.71V35.3A16.65,16.65,0,0,0,28.71,51.92h6.58A16.65,16.65,0,0,0,51.92,35.3V28.71A16.65,16.65,0,0,0,35.29,12.09ZM32,42.31A10.55,10.55,0,1,1,42.55,31.75,10.57,10.57,0,0,1,32,42.31ZM32,24.2a7.55,7.55,0,1,0,7.55,7.55A7.56,7.56,0,0,0,32,24.2Zm3.13,11.72a4.76,4.76,0,0,1-3.54.71,4.71,4.71,0,1,1,3.53-8.54,1,1,0,0,1,.1,1.56A3.11,3.11,0,0,0,34.13,32a3.05,3.05,0,0,0,1.1,2.35A1,1,0,0,1,35.13,35.92Z"/></svg>