<?xml version="1.0" encoding="UTF-8" standalone="no"?>
<svg
   xmlns:dc="http://purl.org/dc/elements/1.1/"
   xmlns:cc="http://creativecommons.org/ns#"
   xmlns:rdf="http://www.w3.org/1999/02/22-rdf-syntax-ns#"
   xmlns:svg="http://www.w3.org/2000/svg"
   xmlns="http://www.w3.org/2000/svg"
   xmlns:sodipodi="http://sodipodi.sourceforge.net/DTD/sodipodi-0.dtd"
   xmlns:inkscape="http://www.inkscape.org/namespaces/inkscape"
   enable-background="new 0 0 25.531 27.5"
   height="27.5px"
   id="Capa_1"
   version="1.1"
   viewBox="0 0 25.531 27.5"
   width="25.531px"
   xml:space="preserve"
   sodipodi:docname="iconfinder_user21_216548.svg"
   inkscape:version="0.92.4 (5da689c313, 2019-01-14)"><metadata
     id="metadata839"><rdf:RDF><cc:Work
         rdf:about=""><dc:format>image/svg+xml</dc:format><dc:type
           rdf:resource="http://purl.org/dc/dcmitype/StillImage" /><dc:title></dc:title></cc:Work></rdf:RDF></metadata><defs
     id="defs837" /><sodipodi:namedview
     pagecolor="#ffffff"
     bordercolor="#666666"
     borderopacity="1"
     objecttolerance="10"
     gridtolerance="10"
     guidetolerance="10"
     inkscape:pageopacity="0"
     inkscape:pageshadow="2"
     inkscape:window-width="716"
     inkscape:window-height="480"
     id="namedview835"
     showgrid="false"
     inkscape:zoom="19.490909"
     inkscape:cx="12.7655"
     inkscape:cy="13.75"
     inkscape:window-x="0"
     inkscape:window-y="0"
     inkscape:window-maximized="1"
     inkscape:current-layer="g832" /><g
     id="g832"><path
       d="M19.182,13.168c-1.207,2.764-3.845,5.074-6.403,5.074c-3.122,0-5.39-2.284-6.599-5.047   c-7.031,3.643-6.145,12.86-6.145,12.86c0,1.262,0.994,1.444,2.162,1.444h10.581h10.566c1.17,0,2.168-0.185,2.168-1.444   C25.512,26.055,26.213,16.811,19.182,13.168z M23.346,25.501H12.779H2.198c-0.071,0-0.135-0.001-0.192-0.002   c-0.05-1.396,0.025-6.456,3.476-9.435c1.799,2.651,4.412,4.179,7.297,4.179c2.594-0.001,5.286-1.66,7.083-4.224   c3.455,2.957,3.68,8.018,3.668,9.479C23.475,25.5,23.413,25.501,23.346,25.501z"
       id="path828"
       style="fill:#e91e63;fill-opacity:1" /><path
       d="M12.779,16.744c3.521,0,6.321-5.039,6.321-9.203C19.1,3.376,16.245,0,12.723,0C9.202,0,6.347,3.376,6.347,7.541   C6.347,11.705,9.257,16.744,12.779,16.744z M12.723,2C15.137,2,17.1,4.485,17.1,7.541c0,3.434-2.262,7.203-4.321,7.203   c-2.071,0-4.432-3.837-4.432-7.203C8.347,4.485,10.31,2,12.723,2z"
       id="path830"
       style="fill:#e91e63;fill-opacity:1" /></g></svg>