<svg width="24" height="24" xmlns="http://www.w3.org/2000/svg">

 <g>
  <title>background</title>
  <rect fill="none" id="canvas_background" height="402" width="582" y="-1" x="-1"/>
 </g>
 <g>
  <title>Layer 1</title>
  <path fill="#ffffff" id="svg_4" d="m12,23.5c-2.2,0 -4.3,-0.6 -6.1,-1.799999l-4,1.299999c-0.2,0.1 -0.4,0 -0.5,-0.1c-0.1,-0.1 -0.2,-0.299999 -0.1,-0.5l1.3,-3.799999c-1.3,-1.9 -2,-4.200001 -2,-6.5c-0.1,-6.400001 5.1,-11.6 11.4,-11.6c6.299999,0 11.5,5.2 11.5,11.5s-5.200001,11.5 -11.5,11.5zm-6,-2.799999c0.1,0 0.2,0 0.3,0.099998c1.7,1.1 3.7,1.700001 5.8,1.700001c5.799999,0 10.5,-4.700001 10.5,-10.5s-4.800001,-10.5 -10.6,-10.5c-5.8,0 -10.5,4.7 -10.5,10.5c0,2.2 0.7,4.4 2,6.200001c0.1,0.099998 0.1,0.299999 0.1,0.5l-1.1,3.199999l3.3,-1c0.1,-0.199999 0.1,-0.199999 0.2,-0.199999zm9.6,-2c-0.8,0 -1.8,-0.300001 -3.400001,-0.900002c-2.7,-1.099998 -4.7,-3.599999 -5.6,-4.9c0,0 -0.1,-0.099999 -0.1,-0.099999c-0.5,-0.8 -1.4,-2.2 -1.4,-3.7c0,-1.7 0.9,-2.6 1.2,-3c0.4,-0.4 0.9,-0.6 1.5,-0.6c0.1,0 0.2,0 0.3,0c0.599999,0 0.9,0.2 1.2,0.9l0.3,0.6c0.299999,0.7 0.7,1.6 0.7,1.7c0.2,0.400001 0.2,0.7 0,1c-0.1,0.2 -0.2,0.400001 -0.400001,0.6c-0.099999,0.099999 -0.2,0.2 -0.299999,0.3c-0.1,0.099999 -0.200001,0.2 -0.3,0.299999c0.2,0.1 0.099999,0.1 0.099999,0.1c0.5,0.8 1.1,1.5 1.700001,2.1c1.099999,0.9 1.9,1.299999 2.299999,1.5l0.1,0c0.1,0 0.1,0.099999 0.2,0c0.2,-0.200001 0.5,-0.6 0.7,-1l0.1,-0.1c0.3,-0.4 0.7,-0.5 0.9,-0.5c0.1,0 0.3,0 0.5,0.1c0.300001,0.099999 1.4,0.599999 2.200001,1.099999l0.199999,0.1c0.300001,0.099999 0.5,0.2 0.6,0.5c0.200001,0.4 0.1,1.3 -0.1,1.900001c-0.299999,0.9 -1.5,1.699999 -2.5,1.9c-0.199999,0 -0.4,0.1 -0.699999,0.1zm-7.7,-12.200001c-0.3,0 -0.6,0.1 -0.8,0.2c-0.3,0.3 -1,1 -1,2.3c0,1.2 0.8,2.5 1.2,3l0.1,0.1c1.5,2.2 3.3,3.799999 5.2,4.6c1.4,0.599998 2.4,0.9 3,0.9c0.2,0 0.4,0 0.5,-0.1c0.699999,-0.200001 1.6,-0.700001 1.799999,-1.200001c0.200001,-0.499999 0.200001,-0.9 0.200001,-1.099999c-0.1,0 -0.1,-0.099999 -0.200001,-0.099999l-0.199999,-0.1c-1.1,-0.6 -2.000001,-1 -2.1,-1c-0.1,0 -0.1,-0.1 -0.200001,0.1l-0.099999,0.099999c-0.3,0.400001 -0.6,0.8 -0.8,1.1c-0.3,0.3 -0.9,0.4 -1.3,0.2l-0.099999,0c-0.400001,-0.2 -1.400001,-0.6 -2.6,-1.6c-0.7,-0.599999 -1.3,-1.4 -1.9,-2.299999c-0.400001,-0.6 0,-1.1 0.2,-1.3c0,-0.1 0.099999,-0.3 0.2,-0.400001c0.1,-0.099999 0.1,-0.099999 0.2,-0.2c0.2,-0.2 0.2,-0.2 0.3,-0.4c0,0 0,-0.1 0,-0.2c-0.1,0 -0.5,-1 -0.8,-1.7l-0.2,-0.6c-0.1,-0.2 -0.2,-0.3 -0.2,-0.3c0,0 -0.1,0 -0.1,0c-0.2,0 -0.3,0 -0.3,0z"/>
 </g>
</svg>